# xmcd
#
# Track frame offsets: 
#        150
#        21580
#        45762
#        65702
#        108612
#        131075
#        153025
#        179027
#        199740
#        211280
#        239622
#        260425
#
# Disc length: 3804 seconds
#
# Revision: 20
# Processed by: cddbd v1.5.2PL0 Copyright (c) Steve Scherf et al.
# Submitted via: ExactAudioCopy v0.99pb4
#
DISCID=b10eda0c
DTITLE=Dave Meniketti - On The Blue Side
DYEAR=1999
DGENRE=Blues
TTITLE0=Man's World
TTITLE1=Angel On My Shoulder
TTITLE2=Cant Do Nothin' Right
TTITLE3=Loan Me A Dime
TTITLE4=Until The Next Time
TTITLE5=Just Coastin'
TTITLE6=Bad Feeling
TTITLE7=Say Goodbye
TTITLE8=Parchman Farm
TTITLE9=Take It Like A Man
TTITLE10=Baby Blues
TTITLE11=Mister Blister
EXTD=
EXTT0=
EXTT1=
EXTT2=
EXTT3=
EXTT4=
EXTT5=
EXTT6=
EXTT7=
EXTT8=
EXTT9=
EXTT10=
EXTT11=
PLAYORDER=
